# Blender v2.92.0 OBJ File: 'tree5.blend'
# www.blender.org
mtllib tree5.mtl
o Cylinder
v -0.000000 1.952961 -2.817796
v 0.000000 15.233629 0.000000
v 1.656259 1.622314 -2.279645
v 0.000000 15.233629 0.000000
v 2.679883 1.952961 -0.870747
v 0.000000 15.233629 0.000000
v 2.679883 1.622314 0.870747
v 0.000000 15.233629 0.000000
v 1.656259 1.952961 2.279645
v 0.000000 15.233629 0.000000
v -0.000000 1.622314 2.817796
v 0.000000 15.233629 0.000000
v -1.656259 1.952961 2.279645
v 0.000000 15.233629 0.000000
v -2.679883 1.622314 0.870747
v 0.000000 15.233629 0.000000
v -2.679883 1.952961 -0.870747
v 0.000000 15.233629 0.000000
v -1.656258 1.622314 -2.279646
v 0.000000 15.186016 0.000000
v -0.000000 3.960883 -2.331969
v -0.000000 6.552147 -1.862337
v -0.000000 8.482118 -1.392704
v 0.000000 11.073381 -1.153109
v -0.011628 12.967266 -0.722290
v 0.415144 13.363207 -0.583623
v 0.677780 10.742735 -0.932885
v 0.818611 8.812763 -1.126721
v 1.094654 6.221500 -1.506662
v 1.370697 4.291530 -1.886603
v 0.678904 12.967266 -0.220589
v 1.096672 11.073381 -0.356330
v 1.324540 8.482117 -0.430369
v 1.771187 6.552147 -0.575494
v 2.217835 3.960884 -0.720618
v 0.678904 13.363207 0.228146
v 1.096672 10.742735 0.356330
v 1.324540 8.812763 0.430369
v 1.771187 6.221500 0.575494
v 2.217835 4.291530 0.720618
v 0.415144 12.967266 0.591180
v 0.677780 11.073381 0.932885
v 0.818611 8.482117 1.126721
v 1.094654 6.552147 1.506662
v 1.370697 3.960884 1.886603
v -0.011628 13.363207 0.729846
v -0.000000 10.742735 1.153109
v -0.000000 8.812763 1.392704
v -0.000000 6.221500 1.862337
v -0.000000 4.291530 2.331969
v -0.438400 12.967266 0.591180
v -0.677780 11.073381 0.932885
v -0.818611 8.482117 1.126721
v -1.094654 6.552147 1.506662
v -1.370697 3.960884 1.886603
v -0.702160 13.363207 0.228146
v -1.096672 10.742735 0.356330
v -1.324540 8.812763 0.430369
v -1.771187 6.221500 0.575494
v -2.217835 4.291530 0.720618
v -0.702160 12.967266 -0.220589
v -1.096672 11.073381 -0.356330
v -1.324540 8.482117 -0.430369
v -1.771187 6.552147 -0.575494
v -2.217835 3.960884 -0.720618
v -0.438400 13.363207 -0.583623
v -0.677780 10.742735 -0.932885
v -0.818610 8.812763 -1.126721
v -1.094653 6.221500 -1.506662
v -1.370697 4.291530 -1.886603
v 0.857489 4.613972 -1.180233
v 1.387446 4.613972 -0.450809
v 1.387446 4.613972 0.450809
v 0.857489 4.613972 1.180232
v -0.000000 4.613972 1.458848
v -0.857489 4.613972 1.180232
v -1.387446 4.613972 0.450809
v -1.387446 4.613972 -0.450809
v -0.857489 4.613972 -1.180233
v -0.000000 4.613972 -1.458848
v -0.000000 6.812581 -1.186198
v 0.697230 6.812581 -0.959655
v 1.128142 6.812581 -0.366555
v 1.128142 6.812581 0.366556
v 0.697230 6.812581 0.959655
v -0.000000 6.812581 1.186198
v -0.697230 6.812581 0.959655
v -1.128142 6.812581 0.366556
v -1.128142 6.812581 -0.366556
v -0.697230 6.812581 -0.959655
v -0.000000 9.149951 -0.873295
v 0.513310 9.149950 -0.706511
v 0.830553 9.149950 -0.269863
v 0.830553 9.149950 0.269863
v 0.513310 9.149950 0.706511
v -0.000000 9.149950 0.873295
v -0.513310 9.149950 0.706511
v -0.830553 9.149950 0.269863
v -0.830553 9.149950 -0.269863
v -0.513310 9.149950 -0.706511
v 0.000000 11.390640 -0.588544
v 0.345938 11.390640 -0.476142
v 0.559739 11.390640 -0.181870
v 0.559739 11.390640 0.181870
v 0.345938 11.390640 0.476142
v -0.000000 11.390640 0.588544
v -0.345938 11.390640 0.476142
v -0.559739 11.390640 0.181870
v -0.559739 11.390640 -0.181870
v -0.345937 11.390640 -0.476142
v 0.000000 13.052164 -0.459172
v 0.311564 13.034147 -0.441058
v 0.436698 13.052162 -0.141892
v 0.511308 13.034147 0.173691
v 0.269894 13.052162 0.371478
v -0.000000 13.052162 0.459172
v -0.269894 13.052162 0.371478
v -0.436698 13.052162 0.141892
v -0.436698 13.052162 -0.141892
v -0.269894 13.052162 -0.371478
vt 1.000000 0.919540
vt 1.000000 1.000000
vt 0.900000 1.000000
vt 0.900000 0.919540
vt 0.800000 1.000000
vt 0.800000 0.919540
vt 0.700000 1.000000
vt 0.700000 0.919540
vt 0.600000 1.000000
vt 0.600000 0.919540
vt 0.500000 1.000000
vt 0.500000 0.919540
vt 0.400000 1.000000
vt 0.400000 0.919540
vt 0.300000 1.000000
vt 0.300000 0.919540
vt 0.200000 1.000000
vt 0.200000 0.919540
vt 0.391068 0.444164
vt 0.250000 0.490000
vt 0.108932 0.444164
vt 0.021746 0.324164
vt 0.021746 0.175836
vt 0.108932 0.055836
vt 0.250000 0.010000
vt 0.391068 0.055836
vt 0.478254 0.175836
vt 0.478254 0.324164
vt 0.100000 1.000000
vt 0.100000 0.919540
vt -0.000000 1.000000
vt -0.000000 0.919540
vt 0.750000 0.490000
vt 0.891068 0.444164
vt 0.978254 0.324164
vt 0.978254 0.175836
vt 0.891068 0.055836
vt 0.750000 0.010000
vt 0.608932 0.055836
vt 0.521746 0.175836
vt 0.521746 0.324164
vt 0.608932 0.444164
vt 0.100000 0.584686
vt 0.100000 0.586207
vt -0.000000 0.586207
vt -0.000000 0.584686
vt 0.100000 0.665733
vt 0.100000 0.669540
vt -0.000000 0.669540
vt -0.000000 0.665733
vt 0.100000 0.751896
vt 0.100000 0.752874
vt -0.000000 0.752874
vt -0.000000 0.751896
vt 0.100000 0.834495
vt 0.100000 0.836207
vt -0.000000 0.836207
vt -0.000000 0.834494
vt 0.100000 0.914791
vt -0.000000 0.914791
vt 0.200000 0.584685
vt 0.200000 0.586207
vt 0.200000 0.665733
vt 0.200000 0.669540
vt 0.200000 0.751896
vt 0.200000 0.752874
vt 0.200000 0.834495
vt 0.200000 0.836207
vt 0.200000 0.914791
vt 0.300000 0.584686
vt 0.300000 0.586207
vt 0.300000 0.665733
vt 0.300000 0.669540
vt 0.300000 0.751896
vt 0.300000 0.752874
vt 0.300000 0.834495
vt 0.300000 0.836207
vt 0.300000 0.914791
vt 0.400000 0.584686
vt 0.400000 0.586207
vt 0.400000 0.665733
vt 0.400000 0.669540
vt 0.400000 0.751896
vt 0.400000 0.752874
vt 0.400000 0.834495
vt 0.400000 0.836207
vt 0.400000 0.914791
vt 0.500000 0.584686
vt 0.500000 0.586207
vt 0.500000 0.665733
vt 0.500000 0.669540
vt 0.500000 0.751896
vt 0.500000 0.752874
vt 0.500000 0.834495
vt 0.500000 0.836207
vt 0.500000 0.914791
vt 0.600000 0.584686
vt 0.600000 0.586207
vt 0.600000 0.665733
vt 0.600000 0.669540
vt 0.600000 0.751896
vt 0.600000 0.752874
vt 0.600000 0.834494
vt 0.600000 0.836207
vt 0.600000 0.914791
vt 0.700000 0.584686
vt 0.700000 0.586207
vt 0.700000 0.665733
vt 0.700000 0.669540
vt 0.700000 0.751896
vt 0.700000 0.752874
vt 0.700000 0.834494
vt 0.700000 0.836207
vt 0.700000 0.914791
vt 0.800000 0.584686
vt 0.800000 0.586207
vt 0.800000 0.665733
vt 0.800000 0.669540
vt 0.800000 0.751896
vt 0.800000 0.752874
vt 0.800000 0.834495
vt 0.800000 0.836207
vt 0.800000 0.914791
vt 0.900000 0.584686
vt 0.900000 0.586207
vt 0.900000 0.665733
vt 0.900000 0.669540
vt 0.900000 0.751896
vt 0.900000 0.752874
vt 0.900000 0.834495
vt 0.900000 0.836207
vt 0.900000 0.914791
vt 1.000000 0.584686
vt 1.000000 0.586207
vt 1.000000 0.665733
vt 1.000000 0.669540
vt 1.000000 0.751896
vt 1.000000 0.752874
vt 1.000000 0.834494
vt 1.000000 0.836207
vt 1.000000 0.914791
vt 1.000000 0.500000
vt 0.900000 0.500000
vt 0.800000 0.500000
vt 0.700000 0.500000
vt 0.600000 0.500000
vt 0.500000 0.500000
vt 0.400000 0.500000
vt 0.300000 0.500000
vt 0.200000 0.500000
vt 0.100000 0.500000
vt -0.000000 0.500000
vn 0.0280 0.3034 -0.9525
vn 0.8970 0.3003 -0.3243
vn 0.9163 0.3003 -0.2649
vn 0.5825 0.3034 0.7541
vn 0.5374 0.3037 0.7868
vn -0.5407 0.3087 0.7825
vn -0.5770 0.3088 0.7561
vn -0.9112 0.3088 -0.2725
vn 0.0000 0.0000 -1.0000
vn -0.8856 0.3143 -0.3419
vn -0.0560 0.3093 -0.9493
vn -0.0000 -1.0000 -0.0000
vn 0.0405 -0.8559 0.5155
vn 0.3065 -0.8250 0.4748
vn 0.0621 -0.6916 0.7196
vn 0.4132 -0.7251 0.5509
vn -0.5312 -0.8253 -0.1914
vn 0.4778 -0.8559 0.1978
vn 0.3568 -0.8250 0.4382
vn 0.6652 -0.6916 0.2814
vn 0.3963 -0.7251 0.5632
vn -0.0403 -0.8170 -0.5752
vn 0.5028 -0.8559 0.1208
vn 0.5462 -0.8250 -0.1448
vn 0.7036 -0.6916 0.1633
vn 0.6517 -0.7251 -0.2227
vn -0.3453 -0.8256 0.4463
vn 0.3357 -0.8559 -0.3933
vn 0.5270 -0.8250 -0.2039
vn 0.4732 -0.6916 -0.5456
vn 0.6581 -0.7251 -0.2029
vn -0.5417 -0.8256 -0.1581
vn 0.2703 -0.8559 -0.4408
vn 0.0311 -0.8250 -0.5642
vn 0.3727 -0.6916 -0.6187
vn -0.0104 -0.7251 -0.6886
vn 0.3055 -0.8170 0.4890
vn -0.2703 -0.8559 -0.4408
vn -0.0311 -0.8250 -0.5642
vn -0.3727 -0.6916 -0.6187
vn 0.0104 -0.7251 -0.6886
vn -0.3173 -0.8253 0.4671
vn -0.3357 -0.8559 -0.3932
vn -0.5270 -0.8250 -0.2039
vn -0.4732 -0.6916 -0.5456
vn -0.6581 -0.7251 -0.2029
vn 0.6081 -0.7937 0.0129
vn -0.5028 -0.8559 0.1208
vn -0.5462 -0.8250 -0.1448
vn -0.7036 -0.6916 0.1633
vn -0.6517 -0.7251 -0.2227
vn 0.4953 -0.7970 0.3457
vn -0.4778 -0.8559 0.1978
vn -0.3568 -0.8250 0.4382
vn -0.6652 -0.6916 0.2814
vn -0.3963 -0.7251 0.5632
vn 0.1975 -0.7970 -0.5708
vn -0.0405 -0.8559 0.5155
vn -0.3065 -0.8250 0.4748
vn -0.0621 -0.6916 0.7196
vn -0.4132 -0.7251 0.5509
vn 0.4844 -0.7937 -0.3679
vn 0.3301 0.4153 -0.8477
vn 0.7042 0.4153 -0.5759
vn 0.9082 0.4153 0.0520
vn 0.7653 0.4153 0.4918
vn 0.2312 0.4153 0.8798
vn -0.2312 0.4153 0.8798
vn -0.7653 0.4153 0.4918
vn -0.9082 0.4153 0.0520
vn -0.7042 0.4153 -0.5759
vn -0.3301 0.4153 -0.8477
vn 0.2316 0.3753 -0.8975
vn 0.7820 0.3753 -0.4976
vn 0.9252 0.3753 -0.0571
vn 0.7149 0.3753 0.5900
vn 0.3402 0.3753 0.8622
vn -0.3402 0.3753 0.8622
vn -0.7149 0.3753 0.5900
vn -0.9252 0.3753 -0.0571
vn -0.7820 0.3753 -0.4976
vn -0.2316 0.3753 -0.8975
vn 0.3518 0.3216 -0.8791
vn 0.7274 0.3216 -0.6062
vn 0.9448 0.3216 0.0629
vn 0.8013 0.3216 0.5044
vn 0.2321 0.3216 0.9180
vn -0.2321 0.3216 0.9180
vn -0.8013 0.3216 0.5044
vn -0.9448 0.3216 0.0629
vn -0.7274 0.3216 -0.6062
vn -0.3518 0.3216 -0.8791
vn 0.2281 0.2679 -0.9361
vn 0.8198 0.2679 -0.5062
vn 0.9607 0.2679 -0.0723
vn 0.7347 0.2679 0.6232
vn 0.3657 0.2679 0.8914
vn -0.3657 0.2679 0.8914
vn -0.7347 0.2679 0.6232
vn -0.9607 0.2679 -0.0723
vn -0.8198 0.2679 -0.5062
vn -0.2281 0.2679 -0.9361
vn 0.3167 0.2789 -0.9066
vn 0.7616 0.2797 -0.5845
vn 0.9598 0.2797 0.0252
vn 0.7891 0.2789 0.5473
vn 0.2015 0.2928 0.9347
vn -0.2015 0.2928 0.9347
vn -0.8267 0.2928 0.4805
vn -0.9512 0.2928 0.0972
vn -0.7124 0.2928 -0.6377
vn -0.3863 0.2928 -0.8746
usemtl Green
s off
f 25/1/1 2/2/1 4/3/1 26/4/1
f 26/4/2 4/3/2 6/5/2 31/6/2
f 31/6/3 6/5/3 8/7/3 36/8/3
f 36/8/4 8/7/4 10/9/4 41/10/4
f 41/10/5 10/9/5 12/11/5 46/12/5
f 46/12/6 12/11/6 14/13/6 51/14/6
f 51/14/7 14/13/7 16/15/7 56/16/7
f 56/16/8 16/15/8 18/17/8 61/18/8
f 4/19/9 2/20/9 20/21/9 18/22/9 16/23/9 14/24/9 12/25/9 10/26/9 8/27/9 6/28/9
f 61/18/10 18/17/10 20/29/10 66/30/10
f 66/30/11 20/29/11 2/31/11 25/32/11
f 1/33/12 3/34/12 5/35/12 7/36/12 9/37/12 11/38/12 13/39/12 15/40/12 17/41/12 19/42/12
f 79/43/13 70/44/13 21/45/13 80/46/13
f 90/47/14 69/48/14 22/49/14 81/50/14
f 100/51/15 68/52/15 23/53/15 91/54/15
f 110/55/16 67/56/16 24/57/16 101/58/16
f 120/59/17 66/30/17 25/32/17 111/60/17
f 78/61/18 65/62/18 70/44/18 79/43/18
f 89/63/19 64/64/19 69/48/19 90/47/19
f 99/65/20 63/66/20 68/52/20 100/51/20
f 109/67/21 62/68/21 67/56/21 110/55/21
f 119/69/22 61/18/22 66/30/22 120/59/22
f 77/70/23 60/71/23 65/62/23 78/61/23
f 88/72/24 59/73/24 64/64/24 89/63/24
f 98/74/25 58/75/25 63/66/25 99/65/25
f 108/76/26 57/77/26 62/68/26 109/67/26
f 118/78/27 56/16/27 61/18/27 119/69/27
f 76/79/28 55/80/28 60/71/28 77/70/28
f 87/81/29 54/82/29 59/73/29 88/72/29
f 97/83/30 53/84/30 58/75/30 98/74/30
f 107/85/31 52/86/31 57/77/31 108/76/31
f 117/87/32 51/14/32 56/16/32 118/78/32
f 75/88/33 50/89/33 55/80/33 76/79/33
f 86/90/34 49/91/34 54/82/34 87/81/34
f 96/92/35 48/93/35 53/84/35 97/83/35
f 106/94/36 47/95/36 52/86/36 107/85/36
f 116/96/37 46/12/37 51/14/37 117/87/37
f 74/97/38 45/98/38 50/89/38 75/88/38
f 85/99/39 44/100/39 49/91/39 86/90/39
f 95/101/40 43/102/40 48/93/40 96/92/40
f 105/103/41 42/104/41 47/95/41 106/94/41
f 115/105/42 41/10/42 46/12/42 116/96/42
f 73/106/43 40/107/43 45/98/43 74/97/43
f 84/108/44 39/109/44 44/100/44 85/99/44
f 94/110/45 38/111/45 43/102/45 95/101/45
f 104/112/46 37/113/46 42/104/46 105/103/46
f 114/114/47 36/8/47 41/10/47 115/105/47
f 72/115/48 35/116/48 40/107/48 73/106/48
f 83/117/49 34/118/49 39/109/49 84/108/49
f 93/119/50 33/120/50 38/111/50 94/110/50
f 103/121/51 32/122/51 37/113/51 104/112/51
f 113/123/52 31/6/52 36/8/52 114/114/52
f 71/124/53 30/125/53 35/116/53 72/115/53
f 82/126/54 29/127/54 34/118/54 83/117/54
f 92/128/55 28/129/55 33/120/55 93/119/55
f 102/130/56 27/131/56 32/122/56 103/121/56
f 112/132/57 26/4/57 31/6/57 113/123/57
f 80/133/58 21/134/58 30/125/58 71/124/58
f 81/135/59 22/136/59 29/127/59 82/126/59
f 91/137/60 23/138/60 28/129/60 92/128/60
f 101/139/61 24/140/61 27/131/61 102/130/61
f 111/141/62 25/1/62 26/4/62 112/132/62
f 1/142/63 80/133/63 71/124/63 3/143/63
f 3/143/64 71/124/64 72/115/64 5/144/64
f 5/144/65 72/115/65 73/106/65 7/145/65
f 7/145/66 73/106/66 74/97/66 9/146/66
f 9/146/67 74/97/67 75/88/67 11/147/67
f 11/147/68 75/88/68 76/79/68 13/148/68
f 13/148/69 76/79/69 77/70/69 15/149/69
f 15/149/70 77/70/70 78/61/70 17/150/70
f 17/150/71 78/61/71 79/43/71 19/151/71
f 19/151/72 79/43/72 80/46/72 1/152/72
f 21/134/73 81/135/73 82/126/73 30/125/73
f 30/125/74 82/126/74 83/117/74 35/116/74
f 35/116/75 83/117/75 84/108/75 40/107/75
f 40/107/76 84/108/76 85/99/76 45/98/76
f 45/98/77 85/99/77 86/90/77 50/89/77
f 50/89/78 86/90/78 87/81/78 55/80/78
f 55/80/79 87/81/79 88/72/79 60/71/79
f 60/71/80 88/72/80 89/63/80 65/62/80
f 65/62/81 89/63/81 90/47/81 70/44/81
f 70/44/82 90/47/82 81/50/82 21/45/82
f 22/136/83 91/137/83 92/128/83 29/127/83
f 29/127/84 92/128/84 93/119/84 34/118/84
f 34/118/85 93/119/85 94/110/85 39/109/85
f 39/109/86 94/110/86 95/101/86 44/100/86
f 44/100/87 95/101/87 96/92/87 49/91/87
f 49/91/88 96/92/88 97/83/88 54/82/88
f 54/82/89 97/83/89 98/74/89 59/73/89
f 59/73/90 98/74/90 99/65/90 64/64/90
f 64/64/91 99/65/91 100/51/91 69/48/91
f 69/48/92 100/51/92 91/54/92 22/49/92
f 23/138/93 101/139/93 102/130/93 28/129/93
f 28/129/94 102/130/94 103/121/94 33/120/94
f 33/120/95 103/121/95 104/112/95 38/111/95
f 38/111/96 104/112/96 105/103/96 43/102/96
f 43/102/97 105/103/97 106/94/97 48/93/97
f 48/93/98 106/94/98 107/85/98 53/84/98
f 53/84/99 107/85/99 108/76/99 58/75/99
f 58/75/100 108/76/100 109/67/100 63/66/100
f 63/66/101 109/67/101 110/55/101 68/52/101
f 68/52/102 110/55/102 101/58/102 23/53/102
f 24/140/103 111/141/103 112/132/103 27/131/103
f 27/131/104 112/132/104 113/123/104 32/122/104
f 32/122/105 113/123/105 114/114/105 37/113/105
f 37/113/106 114/114/106 115/105/106 42/104/106
f 42/104/107 115/105/107 116/96/107 47/95/107
f 47/95/108 116/96/108 117/87/108 52/86/108
f 52/86/109 117/87/109 118/78/109 57/77/109
f 57/77/110 118/78/110 119/69/110 62/68/110
f 62/68/111 119/69/111 120/59/111 67/56/111
f 67/56/112 120/59/112 111/60/112 24/57/112
o Cylinder.001
v 0.000000 -0.074189 -1.000000
v -0.000000 1.925811 -0.609718
v 0.866025 -0.074189 -0.500000
v 0.528031 1.925811 -0.304859
v 0.866025 -0.074189 0.500000
v 0.528031 1.925811 0.304859
v -0.000000 -0.074189 1.000000
v -0.000000 1.925811 0.609718
v -0.866025 -0.074189 0.500000
v -0.528031 1.925811 0.304859
v -0.866025 -0.074189 -0.500000
v -0.528031 1.925811 -0.304859
vt 1.000000 0.500000
vt 1.000000 1.000000
vt 0.833333 1.000000
vt 0.833333 0.500000
vt 0.666667 1.000000
vt 0.666667 0.500000
vt 0.500000 1.000000
vt 0.500000 0.500000
vt 0.333333 1.000000
vt 0.333333 0.500000
vt 0.457846 0.370000
vt 0.250000 0.490000
vt 0.042154 0.370000
vt 0.042154 0.130000
vt 0.250000 0.010000
vt 0.457846 0.130000
vt 0.166667 1.000000
vt 0.166667 0.500000
vt -0.000000 1.000000
vt -0.000000 0.500000
vt 0.750000 0.490000
vt 0.957846 0.370000
vt 0.957846 0.130000
vt 0.750000 0.010000
vt 0.542154 0.130000
vt 0.542154 0.370000
vn 0.4930 0.1666 -0.8539
vn 0.9860 0.1666 0.0000
vn 0.4930 0.1666 0.8539
vn -0.4930 0.1666 0.8539
vn 0.0000 1.0000 0.0000
vn -0.9860 0.1666 0.0000
vn -0.4930 0.1666 -0.8539
vn 0.0000 -1.0000 0.0000
usemtl Material.001
s off
f 121/153/113 122/154/113 124/155/113 123/156/113
f 123/156/114 124/155/114 126/157/114 125/158/114
f 125/158/115 126/157/115 128/159/115 127/160/115
f 127/160/116 128/159/116 130/161/116 129/162/116
f 124/163/117 122/164/117 132/165/117 130/166/117 128/167/117 126/168/117
f 129/162/118 130/161/118 132/169/118 131/170/118
f 131/170/119 132/169/119 122/171/119 121/172/119
f 121/173/120 123/174/120 125/175/120 127/176/120 129/177/120 131/178/120
